<?xml version="1.0" standalone="no"?>
<!DOCTYPE svg PUBLIC "-//W3C//DTD SVG 20010904//EN"
 "http://www.w3.org/TR/2001/REC-SVG-20010904/DTD/svg10.dtd">
<svg version="1.0" xmlns="http://www.w3.org/2000/svg"
 width="1024.000000pt" height="1024.000000pt" viewBox="0 0 1024.000000 1024.000000"
 preserveAspectRatio="xMidYMid meet">

<g transform="translate(0.000000,1024.000000) scale(0.100000,-0.100000)"
fill="#000000" stroke="none">
<path d="M0 5120 l0 -5120 5120 0 5120 0 0 5120 0 5120 -5120 0 -5120 0 0
-5120z m5782 3605 c265 -40 294 -47 538 -126 173 -57 355 -131 460 -188 429
-232 838 -593 1105 -976 141 -203 338 -602 421 -854 19 -57 34 -105 34 -107 0
-2 -9 1 -20 8 -16 10 -29 10 -72 -5 -55 -19 -66 -23 -262 -107 -120 -51 -135
-52 -136 -12 0 29 -74 237 -129 366 -52 121 -142 286 -230 421 -74 114 -256
335 -406 493 -103 110 -417 344 -485 362 -22 6 -25 12 -28 60 -2 30 -7 59 -12
66 -6 6 -36 16 -67 23 -87 18 -247 63 -253 71 -6 8 -109 33 -205 50 -205 36
-456 147 -463 203 -2 18 -9 27 -22 27 -31 0 -93 39 -160 101 -35 32 -66 56
-69 51 -18 -24 -135 -115 -163 -127 -19 -7 -96 -23 -173 -35 -201 -30 -433
-95 -690 -193 -145 -55 -440 -213 -572 -306 -161 -113 -373 -294 -483 -415
-408 -445 -678 -902 -804 -1361 -41 -151 -90 -412 -107 -572 -18 -177 -7 -522
25 -728 44 -289 78 -415 183 -675 202 -502 614 -1035 1060 -1369 329 -247 704
-432 1113 -549 231 -66 417 -92 707 -99 401 -9 684 31 1043 149 257 85 427
162 519 237 25 20 56 44 70 53 41 28 17 21 -56 -16 -77 -39 -254 -89 -280 -79
-10 4 -14 2 -10 -4 10 -15 -8 -20 -188 -55 -156 -30 -168 -31 -460 -32 -343
-1 -409 6 -740 80 -260 58 -313 73 -519 149 -221 81 -254 95 -356 147 -219
113 -408 229 -549 338 -47 36 -116 89 -155 118 -177 134 -482 472 -646 717
-221 330 -400 753 -461 1089 -16 88 -38 206 -49 261 -25 129 -43 282 -35 295
3 5 3 10 -2 10 -13 0 -35 54 -23 58 5 2 7 15 4 28 -4 14 -2 24 4 24 7 0 10 24
9 64 -2 52 -5 62 -17 58 -11 -4 -10 -1 3 12 14 14 15 21 6 32 -12 14 -10 28
17 123 11 40 18 51 25 40 7 -11 9 -8 10 11 1 14 1 28 0 32 0 4 5 5 13 2 15 -6
23 14 51 125 9 35 14 74 11 86 -7 28 14 92 24 75 5 -8 9 -5 13 9 3 12 1 18 -4
15 -11 -6 6 35 66 161 23 50 52 115 64 145 23 58 60 115 61 92 0 -19 -78 -266
-101 -320 -10 -23 -26 -79 -34 -125 -9 -45 -30 -139 -46 -209 -27 -116 -30
-148 -36 -365 -11 -453 46 -760 212 -1143 146 -336 256 -518 488 -809 274
-345 683 -681 1087 -893 258 -135 499 -226 815 -307 335 -87 611 -117 973
-108 258 7 409 23 603 66 74 16 170 35 214 41 93 14 172 51 308 143 240 163
454 345 652 553 248 260 398 441 478 574 34 56 34 50 1 -30 -39 -96 -102 -218
-147 -284 -22 -33 -60 -99 -84 -148 -41 -84 -170 -279 -236 -358 -92 -109
-331 -343 -457 -447 -280 -231 -374 -293 -670 -445 -102 -52 -210 -105 -240
-117 -30 -13 -84 -36 -121 -51 -109 -46 -394 -127 -579 -165 -238 -48 -420
-61 -643 -47 -471 32 -900 136 -1262 307 -49 23 -117 55 -150 70 -275 130
-619 373 -874 619 -65 64 -238 258 -347 391 -102 125 -276 409 -377 617 -144
294 -267 722 -301 1048 -3 30 -9 82 -13 115 -8 70 -8 481 1 540 3 22 10 81 16
130 48 397 170 804 342 1143 203 398 429 708 723 990 376 361 767 594 1278
761 205 67 305 92 457 115 58 9 130 20 160 25 30 5 174 9 320 10 254 1 274 -1
492 -34z m-752 -350 c0 -13 -150 -99 -300 -171 -319 -155 -484 -267 -689 -467
-193 -189 -328 -366 -494 -647 -109 -184 -217 -472 -217 -577 0 -64 30 -53 45
16 4 19 14 50 23 70 9 20 16 38 17 41 0 3 11 25 23 50 12 25 20 34 16 20 -39
-171 -55 -506 -34 -700 35 -327 149 -720 290 -1001 158 -313 413 -640 710
-912 250 -228 674 -489 1018 -628 367 -148 831 -231 1197 -215 530 23 967 212
1436 623 202 176 384 379 432 483 10 19 41 63 71 97 30 34 61 81 70 105 9 24
29 79 45 123 38 103 39 80 1 -62 -32 -124 -49 -162 -92 -211 -15 -18 -47 -70
-69 -114 -75 -148 -252 -384 -375 -497 -33 -30 -108 -102 -168 -159 -61 -57
-130 -115 -155 -130 -26 -14 -48 -29 -51 -32 -9 -12 -100 -62 -100 -56 0 4
-17 -5 -37 -19 -21 -14 -41 -25 -44 -25 -4 0 -40 -18 -79 -41 -200 -113 -434
-187 -710 -223 -82 -11 -603 -8 -700 4 -279 34 -698 158 -932 276 -95 48 -107
52 -88 29 7 -8 19 -15 26 -15 8 0 14 -5 14 -11 0 -5 -4 -7 -10 -4 -5 3 -10 1
-10 -4 0 -14 23 -14 37 0 8 8 13 8 18 0 7 -12 -5 -18 -45 -24 -25 -3 -25 -3 4
-12 22 -6 31 -4 38 9 11 19 39 22 35 4 -1 -8 7 -12 21 -10 12 2 22 -2 22 -7 0
-6 6 -11 13 -11 7 0 30 -9 52 -20 22 -11 45 -20 53 -20 7 0 11 -4 7 -10 -4 -6
-15 -6 -30 0 -17 6 -25 6 -25 -1 0 -6 -5 -7 -11 -3 -6 3 -14 2 -18 -4 -5 -8
-43 -10 -124 -5 l-117 6 0 34 c0 26 -5 36 -22 42 -13 5 -26 7 -30 4 -4 -2 -5
3 -2 11 3 9 11 16 18 16 15 0 -16 20 -31 20 -7 0 -13 -11 -13 -25 0 -16 -6
-25 -15 -25 -19 0 -21 76 -2 84 6 3 3 4 -9 1 -12 -3 -26 1 -33 8 -7 10 -31 13
-76 12 -36 -2 -68 1 -71 6 -9 15 -34 10 -34 -6 0 -8 6 -15 13 -15 9 0 9 -2 0
-8 -7 -4 -30 -6 -53 -4 -36 4 -40 7 -40 31 0 25 -33 51 -67 51 -7 0 -13 4 -13
10 0 5 -18 15 -40 21 -22 7 -40 16 -40 21 0 4 -18 8 -40 8 -22 0 -40 5 -40 10
0 6 -7 10 -15 10 -7 0 -18 8 -23 17 -5 9 -34 23 -63 30 -30 8 -55 18 -57 23
-2 6 -21 10 -42 10 -38 0 -39 1 -42 38 -3 35 -5 37 -40 40 -32 3 -38 7 -38 26
0 16 -7 26 -22 30 -38 10 -58 7 -58 -9 0 -10 -10 -15 -30 -15 -30 0 -43 -24
-17 -33 6 -2 9 -8 5 -12 -4 -4 -22 6 -40 23 -17 18 -28 35 -25 39 4 3 14 -2
22 -13 13 -18 14 -18 8 4 -7 31 -20 36 -39 17 -14 -14 -10 -21 45 -75 61 -60
72 -73 49 -65 -25 10 -319 315 -313 325 3 5 0 8 -7 5 -14 -5 -110 109 -193
228 -27 40 -68 97 -91 127 -22 30 -64 99 -92 152 -28 53 -56 105 -61 115 -24
43 -102 216 -136 303 -39 99 -116 394 -134 515 -17 111 -31 308 -33 460 -1
104 -4 131 -11 106 -6 -26 -11 -31 -18 -20 -5 8 -9 23 -9 34 0 23 -15 10 -23
-20 -3 -11 -4 3 -2 30 l4 50 -10 -42 c-6 -24 -14 -43 -20 -43 -5 0 -9 19 -8
43 1 37 2 39 10 17 6 -19 8 -12 4 26 -2 31 1 56 8 63 7 7 7 11 1 11 -11 0 17
151 54 290 94 356 195 608 320 800 202 311 431 538 740 732 179 113 470 247
699 322 142 47 373 91 373 71z m799 -518 c120 -122 198 -194 204 -188 5 5 8
71 5 150 -3 112 -1 142 10 146 8 3 80 5 162 5 l148 0 7 -86 c4 -47 2 -183 -4
-303 -6 -120 -9 -226 -5 -235 4 -9 23 -25 44 -36 51 -26 195 -157 382 -346
148 -150 277 -292 278 -304 0 -4 -15 -11 -33 -18 -54 -19 -112 -76 -126 -121
-6 -23 -16 -41 -22 -41 -5 0 -91 76 -192 168 -100 93 -200 184 -222 202 -22
19 -128 120 -235 225 -107 106 -235 230 -285 276 -49 46 -155 147 -235 225
-158 154 -385 365 -395 367 -3 1 -81 -72 -173 -163 -92 -91 -237 -233 -322
-315 -85 -82 -252 -243 -370 -359 -239 -234 -571 -551 -619 -591 -31 -27 -51
-26 -51 2 0 39 -118 142 -168 146 -12 1 -22 5 -22 9 0 23 324 345 685 681 77
72 192 181 255 242 63 61 212 203 330 316 118 112 270 259 339 326 l125 122
156 -153 c85 -84 242 -241 349 -349z m-531 -346 c6 -1 12 -13 12 -27 0 -35 21
-104 31 -104 9 0 26 58 31 105 l3 30 78 3 77 3 0 -91 0 -90 -210 0 -210 0 0
58 c0 31 3 73 6 92 l6 35 81 -7 c45 -3 88 -7 95 -7z m12 -310 c0 -32 3 -73 6
-90 l7 -31 -107 0 -106 0 0 90 0 90 100 0 100 0 0 -59z m219 -36 l2 -85 -63 0
c-108 0 -108 0 -108 91 l0 79 84 0 83 0 2 -85z m693 -395 c2 -3 2 -58 0 -122
l-4 -116 -81 -1 c-198 -2 -277 -57 -332 -231 -14 -43 -19 -111 -24 -305 -7
-246 -8 -251 -36 -313 -17 -38 -31 -58 -36 -51 -11 19 -18 -33 -29 -236 -16
-276 9 -476 75 -603 23 -46 24 -56 30 -352 9 -401 25 -484 109 -558 44 -38 84
-49 222 -63 60 -5 109 -11 110 -12 1 -1 4 -55 8 -119 l7 -118 -63 -1 c-277 -6
-502 8 -574 34 -143 53 -593 288 -687 359 -34 26 -83 61 -109 79 l-46 31 16
42 c19 49 27 482 27 1541 l0 660 -31 66 c-55 116 -109 146 -281 156 l-103 6 0
113 0 113 133 4 c210 5 1695 3 1699 -3z m2783 -307 c9 -9 35 -53 56 -97 22
-45 44 -85 49 -90 6 -6 10 -14 10 -18 0 -11 -73 -47 -292 -142 -106 -46 -260
-117 -343 -158 -82 -40 -172 -84 -200 -95 -27 -12 -75 -35 -105 -52 -50 -27
-116 -57 -335 -153 -38 -17 -114 -53 -169 -79 -54 -27 -104 -49 -110 -49 -17
0 -40 45 -32 59 4 6 16 11 26 11 20 0 71 20 80 31 11 13 51 30 60 24 5 -3 12
1 17 8 4 8 25 20 46 26 20 7 35 16 32 21 -3 5 12 14 32 21 21 6 41 17 45 22 3
6 27 11 52 11 36 1 43 3 31 12 -12 9 -7 13 27 24 24 7 54 21 68 32 15 12 26
15 28 8 2 -6 12 -1 23 11 10 12 30 23 43 24 14 2 46 15 73 29 26 14 71 35 98
47 28 11 105 47 172 80 67 32 128 59 136 59 8 0 25 8 38 18 13 10 52 30 86 46
35 15 82 38 105 52 75 44 1 16 -152 -58 -80 -39 -201 -96 -270 -128 -69 -32
-155 -72 -193 -89 -37 -17 -70 -31 -73 -31 -3 0 -29 -11 -57 -24 -29 -14 -113
-52 -187 -84 -74 -33 -195 -88 -268 -123 -111 -52 -136 -61 -152 -51 -17 10
-18 9 -11 -16 5 -15 18 -46 30 -69 24 -48 26 -71 9 -108 -20 -44 -57 -31 -145
51 -37 35 -92 147 -63 129 16 -10 11 1 -7 16 -14 12 -16 12 -8 0 5 -10 4 -12
-4 -7 -6 4 -9 11 -6 16 3 5 -4 24 -17 41 -39 52 -20 169 28 169 9 0 42 -25 75
-57 56 -53 59 -55 59 -30 0 24 11 32 98 76 53 27 149 72 212 101 63 29 180 84
260 122 80 38 235 110 345 160 110 49 243 109 295 133 90 41 268 117 300 128
26 9 38 7 55 -10z m-6373 -135 c-8 -8 -9 -4 -5 13 4 13 8 18 11 10 2 -7 -1
-18 -6 -23z m3441 -45 c-18 -7 -16 -23 2 -23 8 0 15 -9 15 -20 0 -12 7 -20 18
-20 14 0 15 2 2 10 -13 9 -13 11 0 20 8 5 20 9 25 9 6 0 4 -3 -3 -6 -18 -7 -4
-23 21 -23 13 0 17 3 10 8 -6 4 14 7 45 8 31 0 91 3 132 6 41 4 107 3 145 -1
65 -8 60 -8 -59 -10 -141 -1 -213 -16 -347 -71 -39 -17 -73 -30 -75 -30 -2 0
-4 19 -4 42 0 34 6 49 32 75 18 18 37 33 42 32 6 0 5 -3 -1 -6z m544 -49 c-3
-3 -12 -4 -19 -1 -8 3 -5 6 6 6 11 1 17 -2 13 -5z m70 -10 c-3 -3 -12 -4 -19
-1 -8 3 -5 6 6 6 11 1 17 -2 13 -5z m40 -10 c-3 -3 -12 -4 -19 -1 -8 3 -5 6 6
6 11 1 17 -2 13 -5z m681 -199 c-2 -1 -28 -5 -58 -8 -36 -4 -48 -3 -35 3 11 5
33 9 49 9 21 1 27 5 22 16 -17 42 -16 47 3 16 12 -18 21 -34 19 -36z m-768 0
c170 -53 333 -176 436 -328 24 -37 46 -67 49 -67 2 0 15 11 29 25 40 40 56 32
114 -56 28 -44 48 -78 43 -75 -5 4 -11 2 -13 -3 -1 -6 -27 -11 -56 -13 -51 -3
-53 -4 -48 -28 20 -96 25 -134 25 -206 2 -151 -48 -287 -153 -421 -190 -243
-620 -319 -915 -162 -127 68 -228 160 -263 239 -34 78 -42 94 -75 141 -18 26
-33 52 -33 58 0 7 -9 30 -21 53 -39 76 -36 328 5 407 19 35 66 82 77 75 5 -2
25 27 44 67 74 145 213 254 390 305 67 19 288 12 365 -11z m2306 -31 c15 -19
60 -101 100 -182 l72 -146 -86 -48 c-47 -26 -88 -48 -91 -48 -11 0 -141 270
-141 292 0 21 -1 21 -27 -5 -16 -14 -49 -35 -75 -47 l-46 -20 18 -49 c10 -26
37 -88 59 -136 23 -48 41 -93 41 -99 0 -6 -41 -32 -91 -58 l-90 -47 -69 144
c-75 156 -109 247 -94 252 5 2 41 21 79 43 96 55 223 116 282 135 27 9 63 25
79 35 41 26 49 25 80 -16z m-1701 -4 c-27 -12 -43 -12 -25 0 8 5 22 9 30 9 10
0 8 -3 -5 -9z m-81 -36 c-28 -17 -40 -20 -46 -11 -11 17 -10 29 3 22 15 -10
61 4 54 15 -4 6 1 7 11 3 13 -5 8 -11 -22 -29z m1080 -364 c-5 -4 -58 -33
-119 -65 -60 -31 -115 -62 -122 -68 -6 -7 -17 -50 -23 -96 -11 -80 -64 -266
-108 -376 -54 -136 -175 -383 -213 -437 -19 -25 -67 -95 -108 -155 -95 -139
-132 -183 -279 -327 -109 -107 -149 -141 -277 -238 -89 -67 -273 -176 -325
-193 -30 -10 -72 -26 -93 -37 -22 -11 -41 -17 -43 -15 -3 3 1 75 7 161 l12
157 36 27 c57 41 59 44 11 23 -58 -27 -72 -26 -68 1 2 15 30 38 94 77 51 31
111 72 135 92 24 20 52 40 61 45 41 23 187 166 252 248 92 115 227 319 273
410 31 61 65 146 129 316 7 19 13 51 14 70 1 34 4 37 83 76 45 22 159 81 252
130 94 50 206 105 250 123 44 18 100 42 125 55 40 19 67 17 44 -4z m-1330
-1118 c-33 -30 -136 -102 -144 -102 -6 0 -10 5 -10 10 0 6 5 10 10 10 6 0 10
7 10 16 0 11 6 14 18 10 16 -5 16 -4 0 6 -14 10 -7 16 50 39 63 25 88 29 66
11z m-337 -78 c-3 -3 -12 -4 -19 -1 -8 3 -5 6 6 6 11 1 17 -2 13 -5z m171 -42
c-10 -2 -18 -8 -18 -14 0 -6 -3 -8 -6 -5 -11 10 17 38 30 30 7 -5 5 -9 -6 -11z
m-2177 -51 c8 11 9 10 7 -5 -4 -28 -21 -29 -37 -4 -13 21 -13 22 3 9 15 -13
19 -13 27 0z m1459 -221 c0 -5 -2 -10 -4 -10 -3 0 -8 5 -11 10 -3 6 -1 10 4
10 6 0 11 -4 11 -10z m-1955 -400 c3 -6 -1 -7 -9 -4 -18 7 -21 14 -7 14 6 0
13 -4 16 -10z m-12 -56 c15 -14 33 -22 40 -18 9 5 9 4 0 -6 -10 -10 -19 -7
-48 19 -20 17 -32 31 -28 31 5 0 21 -11 36 -26z m677 -204 c0 -5 -4 -10 -10
-10 -5 0 -10 5 -10 10 0 6 5 10 10 10 6 0 10 -4 10 -10z m60 -20 c0 -5 -7 -10
-15 -10 -8 0 -15 5 -15 10 0 6 7 10 15 10 8 0 15 -4 15 -10z m687 -166 c-3 -3
-12 -4 -19 -1 -8 3 -5 6 6 6 11 1 17 -2 13 -5z"/>
<path d="M4838 8523 c7 -3 16 -2 19 1 4 3 -2 6 -13 5 -11 0 -14 -3 -6 -6z"/>
<path d="M4798 8513 c7 -3 16 -2 19 1 4 3 -2 6 -13 5 -11 0 -14 -3 -6 -6z"/>
<path d="M2583 6007 l-1 -82 8 75 c4 41 4 78 1 82 -4 5 -7 -29 -8 -75z"/>
<path d="M2535 5999 c-4 -6 -5 -12 -2 -15 2 -3 7 2 10 11 7 17 1 20 -8 4z"/>
<path d="M2570 3903 c0 -5 10 -19 21 -33 l20 -25 -16 33 c-15 30 -25 41 -25
25z"/>
<path d="M2380 3891 c0 -5 5 -13 10 -16 6 -3 10 -2 10 4 0 5 -4 13 -10 16 -5
3 -10 2 -10 -4z"/>
<path d="M2430 3807 c0 -10 52 -109 55 -105 5 4 -44 108 -50 108 -3 0 -5 -1
-5 -3z"/>
<path d="M2650 3760 c0 -5 5 -10 11 -10 5 0 7 5 4 10 -3 6 -8 10 -11 10 -2 0
-4 -4 -4 -10z"/>
<path d="M2666 3705 c-3 -9 -11 -13 -17 -9 -8 5 -9 3 -4 -5 6 -10 11 -9 23 3
9 8 13 18 10 21 -3 3 -8 -1 -12 -10z"/>
<path d="M2520 3674 c0 -14 -3 -14 -15 -4 -13 11 -12 7 2 -18 10 -17 21 -28
25 -26 5 3 8 2 9 -3 3 -29 13 -49 60 -118 30 -43 72 -104 94 -136 101 -148
438 -500 625 -655 255 -211 701 -467 983 -564 371 -127 577 -173 782 -173 82
0 122 -3 110 -9 -12 -5 35 -6 114 -3 74 2 132 2 129 0 -3 -3 -61 -9 -129 -13
l-124 -8 196 -1 c107 0 206 -4 220 -7 18 -6 20 -5 9 3 -8 6 -51 12 -95 13 -78
2 -79 2 -15 5 96 4 137 13 119 24 -10 6 -4 9 21 9 26 0 31 -3 20 -10 -11 -7
-7 -10 18 -10 22 0 32 5 32 15 0 8 -4 15 -10 15 -5 0 -10 -6 -10 -12 0 -10 -2
-10 -9 0 -6 10 -29 11 -99 6 -50 -4 -89 -11 -86 -15 7 -12 -47 -11 -66 1 -13
9 -13 10 0 10 10 0 11 3 4 8 -7 4 45 8 114 10 70 2 129 7 132 11 3 5 23 14 45
22 22 7 50 24 62 36 13 14 35 23 55 24 l33 1 -30 8 c-19 5 5 7 66 6 74 -1 95
2 92 12 -4 8 7 12 35 12 23 0 51 4 64 10 13 5 49 17 81 26 87 24 64 26 -28 3
-135 -35 -290 -50 -567 -56 -313 -7 -413 2 -688 57 -178 36 -361 88 -545 157
-126 46 -297 126 -393 182 -40 23 -77 39 -84 35 -7 -4 -8 -3 -4 4 3 6 -2 16
-13 21 -26 14 -34 14 -25 -1 4 -7 3 -8 -5 -4 -6 4 -8 12 -5 18 5 8 1 9 -10 5
-10 -4 -15 -3 -11 3 3 5 -4 14 -16 20 -13 7 -19 8 -15 2 3 -6 1 -14 -5 -18 -7
-4 -9 -3 -6 2 9 16 -3 28 -89 87 -64 44 -84 53 -94 44 -10 -9 -11 -9 -6 1 4 7
2 19 -4 27 -13 16 -35 21 -26 7 3 -5 -1 -9 -9 -9 -10 0 -12 4 -5 12 7 8 0 19
-22 35 -17 13 -37 23 -44 23 -7 0 -11 3 -9 7 2 3 -5 14 -17 24 -17 15 -22 16
-30 5 -8 -11 -9 -10 -4 3 6 19 -59 82 -75 72 -5 -3 -8 -1 -7 4 5 14 -316 339
-330 334 -6 -2 -12 -11 -12 -19 0 -27 -10 -8 -14 26 -2 17 -11 38 -21 45 -10
7 -16 17 -13 22 3 5 -6 24 -21 42 l-28 33 0 -33 c-1 -23 1 -27 6 -15 6 17 9
17 19 4 10 -12 9 -16 -4 -21 -26 -10 -51 -7 -64 9 -7 8 -22 15 -33 15 -11 0
-36 5 -54 12 -28 10 -36 10 -42 -1 -6 -9 -14 -5 -30 17 -11 17 -21 35 -21 41
0 6 -9 15 -20 21 -11 6 -20 16 -20 23 0 9 2 9 8 0 4 -7 8 11 8 41 -1 30 -4 52
-8 50 -5 -3 -5 -17 -2 -32 l6 -27 -17 23 c-9 12 -14 26 -10 31 3 6 -4 9 -15 8
-13 -1 -16 -5 -10 -11 13 -13 13 -26 0 -26 -5 0 -13 12 -16 28 -4 15 -11 33
-17 40 -6 8 -6 16 1 25 8 10 6 16 -9 25 -16 10 -19 10 -19 -4z m12 -26 c-7 -7
-12 -8 -12 -2 0 14 12 26 19 19 2 -3 -1 -11 -7 -17z m88 -132 c0 -6 -7 -2 -15
8 -8 11 -15 25 -15 30 0 6 7 2 15 -8 8 -11 15 -25 15 -30z m197 -241 c18 1 20
-1 11 -12 -8 -10 -13 -11 -18 -3 -4 7 -11 11 -16 10 -5 -1 -10 4 -12 12 -2 9
-1 9 5 2 4 -6 18 -10 30 -9z m202 -17 c12 -15 11 -18 -3 -18 -10 0 -16 8 -16
22 0 12 1 19 3 17 1 -2 9 -12 16 -21z m-159 -13 c11 -13 10 -14 -4 -9 -9 3
-16 10 -16 15 0 13 6 11 20 -6z m22 -70 c11 -21 10 -20 -37 35 l-30 35 28 -25
c16 -14 33 -34 39 -45z m197 16 c17 -16 31 -33 31 -37 0 -4 -13 4 -28 19 -16
15 -32 24 -37 20 -4 -5 -5 -3 -2 4 4 6 1 14 -5 16 -9 4 -9 6 -2 6 7 1 26 -12
43 -28z m1 -41 c0 -5 -2 -10 -4 -10 -3 0 -8 5 -11 10 -3 6 -1 10 4 10 6 0 11
-4 11 -10z m74 -39 c-2 -3 -12 3 -22 13 -16 17 -16 18 5 5 12 -7 20 -15 17
-18z m-187 -6 c5 -4 2 -5 -6 0 -11 6 -13 4 -8 -8 9 -23 0 -21 -13 2 -7 15 -7
19 5 17 8 -1 18 -6 22 -11z m23 -35 c0 -5 -2 -10 -4 -10 -3 0 -8 5 -11 10 -3
6 -1 10 4 10 6 0 11 -4 11 -10z m185 -10 c10 -11 16 -20 13 -20 -3 0 -13 9
-23 20 -10 11 -16 20 -13 20 3 0 13 -9 23 -20z m48 -36 c-6 -16 -13 -13 -17 8
-1 7 -6 20 -11 28 -5 10 -1 8 13 -3 11 -11 18 -25 15 -33z m-63 21 c0 -2 -9
-3 -19 -2 -11 0 -18 5 -15 9 4 6 34 0 34 -7z m119 -58 c13 -21 13 -22 -6 -4
-26 22 -41 22 -20 -1 15 -16 15 -18 -1 -18 -13 0 -17 8 -16 26 1 14 2 26 3 27
4 7 28 -11 40 -30z m100 -117 c0 -8 -4 -5 -10 8 -5 13 -12 21 -17 18 -4 -2 -8
4 -8 15 0 19 1 18 18 -3 10 -13 17 -30 17 -38z m317 -202 c5 4 5 3 1 -2 -12
-15 -34 -15 -34 0 0 9 4 11 12 4 7 -5 16 -6 21 -2z m219 -146 c-3 -3 -11 0
-18 7 -9 10 -8 11 6 5 10 -3 15 -9 12 -12z m170 -91 c3 -5 2 -12 -3 -15 -5 -3
-9 1 -9 9 0 17 3 19 12 6z m1695 -331 c-14 -4 -34 -8 -45 -8 -16 0 -15 2 5 8
14 4 34 8 45 8 16 0 15 -2 -5 -8z m-13 -26 c-3 -3 -12 -4 -19 -1 -8 3 -5 6 6
6 11 1 17 -2 13 -5z m-184 -101 c-13 -2 -33 -2 -45 0 -13 2 -3 4 22 4 25 0 35
-2 23 -4z"/>
<path d="M2725 3619 c-11 -16 -1 -19 13 -3 7 8 8 14 3 14 -5 0 -13 -5 -16 -11z"/>
<path d="M2786 3555 c9 -14 19 -24 21 -21 6 6 -20 46 -30 46 -4 0 0 -11 9 -25z"/>
<path d="M2756 3555 c4 -8 11 -15 16 -15 6 0 5 6 -2 15 -7 8 -14 15 -16 15 -2
0 -1 -7 2 -15z"/>
<path d="M2655 3510 c3 -5 10 -10 16 -10 5 0 9 5 9 10 0 6 -7 10 -16 10 -8 0
-12 -4 -9 -10z"/>
<path d="M2847 3473 c-3 -5 4 -15 16 -23 21 -12 21 -12 7 6 -8 10 -15 20 -16
22 -1 2 -4 -1 -7 -5z"/>
<path d="M2686 3452 c-5 -9 -3 -20 6 -29 14 -13 16 -13 22 2 3 9 2 13 -3 10
-5 -3 -11 3 -13 12 -3 14 -5 15 -12 5z"/>
<path d="M6795 2392 c-6 -5 -43 -21 -83 -36 -40 -16 -71 -30 -70 -32 6 -5 160
54 172 66 12 12 -5 14 -19 2z"/>
<path d="M6378 2233 c7 -3 16 -2 19 1 4 3 -2 6 -13 5 -11 0 -14 -3 -6 -6z"/>
<path d="M6290 2215 c-47 -18 -27 -18 30 -1 25 8 36 15 25 15 -11 0 -36 -7
-55 -14z"/>
<path d="M6670 2195 c-14 -8 -20 -14 -15 -14 6 0 21 6 35 14 14 8 21 14 15 14
-5 0 -21 -6 -35 -14z"/>
<path d="M6548 2143 c7 -3 16 -2 19 1 4 3 -2 6 -13 5 -11 0 -14 -3 -6 -6z"/>
<path d="M6490 2130 c-18 -12 -2 -12 25 0 13 6 15 9 5 9 -8 0 -22 -4 -30 -9z"/>
<path d="M6180 2037 c-51 -13 -75 -23 -60 -25 14 -1 59 9 100 22 94 30 72 32
-40 3z"/>
<path d="M5770 2040 c-9 -6 -10 -10 -3 -10 6 0 15 5 18 10 8 12 4 12 -15 0z"/>
<path d="M6018 1993 c6 -2 18 -2 25 0 6 3 1 5 -13 5 -14 0 -19 -2 -12 -5z"/>
<path d="M5720 1965 l-45 -12 35 -6 c19 -3 51 -2 70 2 l35 9 -30 2 c-26 1 -27
3 -10 10 29 12 -1 10 -55 -5z m37 -11 c-3 -3 -12 -4 -19 -1 -8 3 -5 6 6 6 11
1 17 -2 13 -5z"/>
<path d="M5898 1973 c6 -2 18 -2 25 0 6 3 1 5 -13 5 -14 0 -19 -2 -12 -5z"/>
<path d="M5135 1960 c-18 -8 -17 -9 8 -9 15 -1 27 4 27 9 0 12 -8 12 -35 0z"/>
<path d="M5848 1963 c7 -3 16 -2 19 1 4 3 -2 6 -13 5 -11 0 -14 -3 -6 -6z"/>
<path d="M5653 1933 c9 -2 23 -2 30 0 6 3 -1 5 -18 5 -16 0 -22 -2 -12 -5z"/>
<path d="M2893 6050 c0 -30 2 -43 4 -27 2 15 2 39 0 55 -2 15 -4 2 -4 -28z"/>
<path d="M3606 4067 c3 -10 9 -15 12 -12 3 3 0 11 -7 18 -10 9 -11 8 -5 -6z"/>
<path d="M3635 4049 c-4 -6 -5 -12 -2 -15 2 -3 7 2 10 11 7 17 1 20 -8 4z"/>
<path d="M3770 3902 c0 -5 9 -17 20 -27 15 -14 20 -15 20 -4 0 8 -9 20 -20 27
-11 7 -20 8 -20 4z"/>
<path d="M4405 3860 c10 -11 20 -20 23 -20 3 0 -3 9 -13 20 -10 11 -20 20 -23
20 -3 0 3 -9 13 -20z"/>
<path d="M4440 3833 c0 -7 26 -29 58 -50 31 -20 59 -40 62 -43 3 -3 19 -13 35
-23 l30 -18 -30 25 c-16 14 -55 43 -85 63 -30 21 -58 42 -62 48 -5 6 -8 6 -8
-2z"/>
<path d="M4638 3687 c7 -7 8 -18 4 -22 -4 -5 -2 -5 5 -1 7 4 24 -1 38 -10 14
-9 27 -15 29 -13 2 2 -17 17 -42 32 -25 16 -40 22 -34 14z"/>
<path d="M4721 3623 c-12 -13 -11 -14 6 -9 13 4 30 -2 48 -16 16 -12 35 -23
43 -24 20 -3 25 -11 17 -24 -4 -6 -13 -9 -19 -7 -7 3 -13 -1 -13 -8 0 -10 5
-11 19 -4 11 6 25 6 36 1 9 -5 23 -7 31 -4 9 3 11 0 6 -8 -6 -10 -4 -12 8 -7
8 3 18 0 20 -8 3 -7 20 -16 37 -20 20 -4 30 -12 26 -20 -3 -9 2 -11 15 -8 10
3 19 7 19 8 0 9 -138 79 -153 78 -9 -1 -15 2 -12 6 6 10 -14 28 -35 33 -8 2
-17 5 -20 8 -3 3 -18 15 -35 27 -27 18 -32 19 -44 6z"/>
<path d="M4773 3503 c-20 -8 -15 -23 7 -23 11 0 20 7 20 15 0 15 -6 17 -27 8z"/>
<path d="M5040 3445 c7 -8 17 -12 22 -9 6 4 5 10 -3 15 -22 14 -33 10 -19 -6z"/>
<path d="M5073 3403 c4 -3 2 -12 -4 -20 -9 -10 -8 -13 5 -13 9 0 16 8 16 20 0
11 -5 20 -12 20 -6 0 -8 -3 -5 -7z"/>
<path d="M5210 3331 c0 -5 14 -14 31 -21 24 -10 32 -10 42 0 9 10 9 11 0 6 -7
-4 -26 0 -43 9 -16 8 -30 11 -30 6z"/>
<path d="M5228 3283 c7 -3 16 -2 19 1 4 3 -2 6 -13 5 -11 0 -14 -3 -6 -6z"/>
<path d="M5264 8002 c-442 -399 -1466 -1412 -1428 -1412 4 0 75 70 158 155
115 118 154 153 163 144 9 -9 10 -6 6 11 -4 16 -3 21 5 16 7 -4 12 -2 12 3 0
12 28 42 265 281 182 184 261 256 276 252 6 -1 8 2 4 7 -3 6 11 26 32 45 31
28 41 32 53 23 13 -10 13 -10 3 4 -16 20 -5 33 15 16 13 -10 14 -8 7 12 -6 19
-4 23 8 18 11 -4 14 -1 11 7 -5 12 10 30 30 38 5 1 38 33 74 70 36 37 69 65
74 62 5 -3 7 0 6 8 -2 7 3 12 10 10 8 -1 11 2 8 6 -5 8 197 207 251 247 10 8
14 14 8 15 -5 0 -29 -17 -51 -38z"/>
<path d="M5563 7834 c34 -31 68 -64 75 -72 6 -9 12 -11 12 -5 0 11 -132 133
-144 133 -3 0 22 -25 57 -56z"/>
<path d="M5660 7743 c0 -5 26 -33 57 -63 l57 -55 -44 50 c-61 69 -70 78 -70
68z"/>
<path d="M5910 7499 c41 -41 77 -73 79 -72 7 5 -31 43 -94 95 -57 48 -56 46
15 -23z"/>
<path d="M6013 7409 c9 -6 14 -15 11 -21 -4 -7 -2 -8 4 -4 6 3 16 -3 22 -15 7
-11 14 -18 18 -15 7 8 -48 66 -62 66 -6 0 -3 -5 7 -11z"/>
<path d="M6510 6926 c0 -13 274 -296 288 -296 7 0 -17 26 -165 179 -68 69
-123 122 -123 117z"/>
<path d="M5701 6344 c0 -11 3 -14 6 -6 3 7 2 16 -1 19 -3 4 -6 -2 -5 -13z"/>
<path d="M5840 3770 c8 -5 20 -10 25 -10 6 0 3 5 -5 10 -8 5 -19 10 -25 10 -5
0 -3 -5 5 -10z"/>
<path d="M6158 3613 c7 -3 16 -2 19 1 4 3 -2 6 -13 5 -11 0 -14 -3 -6 -6z"/>
<path d="M9020 6290 c-9 -6 -10 -10 -3 -10 6 0 15 5 18 10 8 12 4 12 -15 0z"/>
<path d="M8964 6264 c-18 -14 -18 -14 6 -3 31 14 36 19 24 19 -6 0 -19 -7 -30
-16z"/>
<path d="M8005 5790 c3 -5 10 -10 16 -10 5 0 9 5 9 10 0 6 -7 10 -16 10 -8 0
-12 -4 -9 -10z"/>
<path d="M6050 6250 c12 -8 12 -10 1 -10 -8 0 -12 -2 -9 -5 3 -3 13 -2 22 1
14 5 15 9 4 15 -7 5 -17 9 -23 9 -5 0 -3 -5 5 -10z"/>
<path d="M6438 5863 c17 -2 47 -2 65 0 17 2 3 4 -33 4 -36 0 -50 -2 -32 -4z"/>
<path d="M6331 5790 c-40 -11 -78 -17 -85 -13 -6 3 -8 3 -4 -2 4 -4 -12 -20
-36 -35 -66 -43 -103 -88 -151 -185 -101 -206 -80 -385 66 -548 95 -107 203
-155 364 -164 162 -9 268 31 378 142 93 92 111 142 112 305 l0 125 -39 74
c-49 91 -110 154 -211 220 -135 88 -266 115 -394 81z m453 -386 c3 -8 2 -12
-4 -9 -6 3 -10 10 -10 16 0 14 7 11 14 -7z m23 -86 c-3 -8 -6 -5 -6 6 -1 11 2
17 5 13 3 -3 4 -12 1 -19z m10 -80 c-3 -8 -6 -5 -6 6 -1 11 2 17 5 13 3 -3 4
-12 1 -19z m-10 -40 c-3 -8 -6 -5 -6 6 -1 11 2 17 5 13 3 -3 4 -12 1 -19z
m-481 -128 c8 0 14 -3 14 -7 0 -10 64 -39 115 -53 61 -15 125 -12 174 10 24
11 46 19 48 17 2 -3 -20 -14 -49 -27 -98 -42 -240 -14 -328 66 -22 20 -46 47
-51 58 -6 12 6 2 26 -21 20 -24 43 -43 51 -43z m434 37 c0 -2 -10 -12 -22 -23
l-23 -19 19 23 c18 21 26 27 26 19z"/>
<path d="M6788 4713 c7 -3 16 -2 19 1 4 3 -2 6 -13 5 -11 0 -14 -3 -6 -6z"/>
<path d="M6245 4700 c11 -5 29 -8 40 -8 16 0 15 2 -5 8 -34 11 -60 11 -35 0z"/>
<path d="M7903 5391 c-36 -18 -45 -36 -13 -26 10 3 28 2 38 -4 17 -9 19 -6 20
19 1 34 0 34 -45 11z"/>
</g>
</svg>
